<?xml version="1.0" encoding="UTF-8" standalone="no"?>
<!DOCTYPE svg PUBLIC "-//W3C//DTD SVG 1.1//EN" "http://www.w3.org/Graphics/SVG/1.1/DTD/svg11.dtd">
<svg width="100%" height="100%" viewBox="0 0 500 500" version="1.1" xmlns="http://www.w3.org/2000/svg" xmlns:xlink="http://www.w3.org/1999/xlink" xml:space="preserve" xmlns:serif="http://www.serif.com/" style="fill-rule:evenodd;clip-rule:evenodd;stroke-linecap:round;stroke-linejoin:round;stroke-miterlimit:22.9256;">
    <g id="logo" transform="matrix(2.93882,0,0,2.93882,263.196,245.614)">
        <g transform="matrix(1,0,0,1,-51,-79)">
            <g>
                <path d="M65.185,13.755C75.399,22.26 85.688,26.827 96.051,27.456" style="fill:none;stroke:rgb(44,44,44);stroke-width:4.25px;"/>
                <path d="M96.682,30.447C97.958,6.648 66.746,-7.28 51.328,9.502C43.317,15.155 39.695,23.607 40.462,34.857" style="fill:none;stroke:rgb(44,44,44);stroke-width:4.25px;"/>
                <path d="M51.328,9.502C50.293,8.27 49.138,7.483 47.863,7.14" style="fill:none;stroke:rgb(44,44,44);stroke-width:4.25px;"/>
                <path d="M57.785,15.644C54.382,27.423 45.77,31.832 42.981,42.73" style="fill:none;stroke:rgb(44,44,44);stroke-width:4.25px;"/>
                <g transform="matrix(0.91359,0.406638,0.317048,-0.71231,-6.18474,35.7578)">
                    <path d="M70.633,36.625C66.398,34.034 61.319,33.788 56.21,34.384" style="fill:none;stroke:rgb(44,44,44);stroke-width:4.25px;"/>
                </g>
                <path d="M65.344,43.123C62.659,41.566 59.404,41.067 55.58,41.627" style="fill:none;stroke:rgb(44,44,44);stroke-width:4.25px;"/>
                <path d="M78.1,47.218C80.82,48.258 82.919,49.859 84.399,52.021" style="fill:none;stroke:rgb(44,44,44);stroke-width:4.25px;"/>
                <g transform="matrix(0.767338,0.641242,0.43899,-0.525314,0.742026,11.5575)">
                    <path d="M80.068,41.627C85.61,43.911 88.707,46.483 89.36,49.344" style="fill:none;stroke:rgb(44,44,44);stroke-width:4.25px;"/>
                </g>
                <path d="M74.007,55.408C73.217,57.094 71.581,58.226 69.724,58.373C67.868,58.52 66.075,57.658 65.03,56.116C62.863,55.338 61.735,54.209 61.644,52.73C57.298,56.137 55.913,58.044 53.487,64.455" style="fill:none;stroke:rgb(44,44,44);stroke-width:4.25px;"/>
                <g transform="matrix(0.759808,0.650147,0.650147,-0.759808,-23.016,70.0621)">
                    <path d="M69.558,63.153C63.568,63.172 62.662,63.3 57.943,58.557" style="fill:none;stroke:rgb(44,44,44);stroke-width:4.25px;"/>
                </g>
                <path d="M90.7,29.817C90.907,35.926 90.461,42.436 89.36,49.344" style="fill:none;stroke:rgb(44,44,44);stroke-width:4.25px;"/>
                <path d="M87.235,54.069C86.86,63.349 82.66,70.961 74.637,76.904C67.97,82.78 61.041,83.2 53.849,78.164C44.624,72.349 40.529,62.743 41.566,49.344" style="fill:none;stroke:rgb(44,44,44);stroke-width:4.25px;"/>
                <path d="M43.909,39.828C43.633,37.718 42.009,36.039 39.911,35.692C34.051,34.724 32.894,42.444 34.95,46.643C36.231,49.258 38.604,51.172 41.43,51.87" style="fill:none;stroke:rgb(44,44,44);stroke-width:4.25px;"/>
                <path d="M65.939,107.62C71.519,102.336 83.477,105.441 82.897,113.743C82.418,120.576 73.501,123.395 67.635,123.588C60.157,123.834 49.289,119.675 50.241,110.51C50.912,104.04 58.858,100.78 64.65,100.579L65.398,96.202L68.412,98.564C71.912,97.981 74.81,98.367 77.107,99.723L80.867,98.217L80.339,103.135" style="fill:none;stroke:rgb(44,44,44);stroke-width:4.24px;"/>
                <path d="M32.276,116.586C55.401,119.061 70.466,124.993 77.473,134.382" style="fill:none;stroke:rgb(44,44,44);stroke-width:4.25px;"/>
                <path d="M77.473,134.382C79.123,142.756 77.286,149.161 71.961,153.595C44.819,157.785 27.9,155.407 19.205,148.87C-12.049,125.374 3.393,67.618 34.95,46.643" style="fill:none;stroke:rgb(44,44,44);stroke-width:4.25px;"/>
                <path d="M72.554,153.08C84.006,154.407 92.346,149.41 93.221,143.358C94.02,137.841 86.883,133.148 77.473,134.382" style="fill:none;stroke:rgb(44,44,44);stroke-width:4.25px;"/>
                <path d="M89.757,107.609C100.866,120.21 102.032,131.653 93.253,141.936" style="fill:none;stroke:rgb(44,44,44);stroke-width:4.25px;"/>
                <path d="M79.268,72.853C94.261,84.33 99.786,98.751 95.842,116.117" style="fill:none;stroke:rgb(44,44,44);stroke-width:4.25px;"/>
                <path d="M37.159,88.868C42.674,90.356 53.892,95.074 58.02,101.975" style="fill:none;stroke:rgb(44,44,44);stroke-width:4.25px;"/>
            </g>
        </g>
    </g>
    <g transform="matrix(0.319045,0.166442,-0.166442,0.319045,232.872,12.7839)">
        <path d="M55,113L59.266,126.129L73.07,126.129L61.902,134.243L66.168,147.371L55,139.257L43.832,147.371L48.098,134.243L36.93,126.129L50.734,126.129L55,113Z" style="fill:white;fill-opacity:0;stroke:black;stroke-width:2.87px;stroke-miterlimit:1.5;"/>
    </g>
    <g transform="matrix(0.113492,0.285609,-0.285609,0.113492,257.199,20.8458)">
        <path d="M55,113L59.266,126.129L73.07,126.129L61.902,134.243L66.168,147.371L55,139.257L43.832,147.371L48.098,134.243L36.93,126.129L50.734,126.129L55,113Z" style="fill:white;fill-opacity:0;stroke:black;stroke-width:3.36px;stroke-miterlimit:1.5;"/>
    </g>
    <g transform="matrix(0.266532,0.0752846,-0.0752846,0.266532,233.853,10.2687)">
        <path d="M55,113L59.266,126.129L73.07,126.129L61.902,134.243L66.168,147.371L55,139.257L43.832,147.371L48.098,134.243L36.93,126.129L50.734,126.129L55,113Z" style="fill:white;fill-opacity:0;stroke:black;stroke-width:3.73px;stroke-miterlimit:1.5;"/>
    </g>
    <g transform="matrix(0.46302,0.266733,-0.266733,0.46302,255.48,0.632643)">
        <path d="M55,113L59.266,126.129L73.07,126.129L61.902,134.243L66.168,147.371L55,139.257L43.832,147.371L48.098,134.243L36.93,126.129L50.734,126.129L55,113Z" style="fill:white;fill-opacity:0;stroke:black;stroke-width:1.93px;stroke-miterlimit:1.5;"/>
    </g>
    <g transform="matrix(0.51873,0.261719,-0.261719,0.51873,278.609,9.11929)">
        <path d="M55,113L59.266,126.129L73.07,126.129L61.902,134.243L66.168,147.371L55,139.257L43.832,147.371L48.098,134.243L36.93,126.129L50.734,126.129L55,113Z" style="fill:white;fill-opacity:0;stroke:black;stroke-width:1.78px;stroke-miterlimit:1.5;"/>
    </g>
    <g transform="matrix(0.568075,0.278589,-0.278589,0.568075,309.001,17.1052)">
        <path d="M55,113L59.266,126.129L73.07,126.129L61.902,134.243L66.168,147.371L55,139.257L43.832,147.371L48.098,134.243L36.93,126.129L50.734,126.129L55,113Z" style="fill:white;fill-opacity:0;stroke:black;stroke-width:1.63px;stroke-miterlimit:1.5;"/>
    </g>
    <g transform="matrix(0.598137,0.206284,-0.206284,0.598137,334.555,33.9593)">
        <path d="M55,113L59.266,126.129L73.07,126.129L61.902,134.243L66.168,147.371L55,139.257L43.832,147.371L48.098,134.243L36.93,126.129L50.734,126.129L55,113Z" style="fill:white;fill-opacity:0;stroke:black;stroke-width:1.63px;stroke-miterlimit:1.5;"/>
    </g>
    <g transform="matrix(0.69956,0.241262,-0.241262,0.69956,366.577,27.7184)">
        <path d="M55,113L59.266,126.129L73.07,126.129L61.902,134.243L66.168,147.371L55,139.257L43.832,147.371L48.098,134.243L36.93,126.129L50.734,126.129L55,113Z" style="fill:none;stroke:black;stroke-width:1.4px;stroke-miterlimit:1.5;"/>
    </g>
    <g transform="matrix(0.526331,-0.165834,0.165834,0.526331,351.026,73.6159)">
        <path d="M55,113L59.266,126.129L73.07,126.129L61.902,134.243L66.168,147.371L55,139.257L43.832,147.371L48.098,134.243L36.93,126.129L50.734,126.129L55,113Z" style="fill:none;stroke:black;stroke-width:1.87px;stroke-miterlimit:1.5;"/>
    </g>
    <g transform="matrix(0.280754,-0.170419,0.170419,0.280754,373.09,96.0478)">
        <path d="M55,113L59.266,126.129L73.07,126.129L61.902,134.243L66.168,147.371L55,139.257L43.832,147.371L48.098,134.243L36.93,126.129L50.734,126.129L55,113Z" style="fill:none;stroke:black;stroke-width:3.14px;stroke-miterlimit:1.5;"/>
    </g>
    <g transform="matrix(0.381918,0.225254,-0.225254,0.381918,404.834,49.8439)">
        <path d="M55,113L59.266,126.129L73.07,126.129L61.902,134.243L66.168,147.371L55,139.257L43.832,147.371L48.098,134.243L36.93,126.129L50.734,126.129L55,113Z" style="fill:none;stroke:black;stroke-width:2.33px;stroke-miterlimit:1.5;"/>
    </g>
</svg>
