<?xml version="1.0" encoding="UTF-8" standalone="no"?><!DOCTYPE svg PUBLIC "-//W3C//DTD SVG 1.1//EN" "http://www.w3.org/Graphics/SVG/1.1/DTD/svg11.dtd"><svg width="100%" height="100%" viewBox="0 0 140 28" version="1.1" xmlns="http://www.w3.org/2000/svg" xmlns:xlink="http://www.w3.org/1999/xlink" xml:space="preserve" style="fill-rule:evenodd;clip-rule:evenodd;stroke-linejoin:round;stroke-miterlimit:1.41421;"><g><g><path d="M133.393,-0.018l-126.882,0c-0.25,0 -0.496,0 -0.745,0.001c-0.209,0.002 -0.415,0.006 -0.626,0.009c-0.453,0.011 -0.912,0.039 -1.364,0.12c-0.456,0.08 -0.88,0.216 -1.295,0.427c-0.407,0.209 -0.78,0.48 -1.102,0.803c-0.326,0.322 -0.596,0.696 -0.802,1.104c-0.212,0.414 -0.346,0.839 -0.426,1.296c-0.082,0.45 -0.11,0.907 -0.122,1.363c-0.006,0.208 -0.007,0.418 -0.01,0.627l0,15.738c0.003,0.212 0.004,0.416 0.01,0.628c0.012,0.456 0.04,0.912 0.122,1.363c0.08,0.456 0.214,0.884 0.426,1.297c0.206,0.405 0.476,0.779 0.802,1.099c0.322,0.325 0.695,0.596 1.102,0.802c0.415,0.213 0.839,0.348 1.295,0.43c0.452,0.081 0.911,0.108 1.364,0.12c0.211,0.005 0.417,0.008 0.626,0.008c0.249,0.001 0.495,0.001 0.745,0.001l126.882,0c0.244,0 0.493,0 0.738,-0.001c0.207,0 0.42,-0.003 0.627,-0.008c0.456,-0.012 0.914,-0.039 1.362,-0.12c0.456,-0.082 0.88,-0.217 1.299,-0.43c0.407,-0.206 0.78,-0.477 1.102,-0.802c0.324,-0.32 0.594,-0.694 0.804,-1.099c0.209,-0.413 0.345,-0.841 0.422,-1.297c0.083,-0.451 0.11,-0.907 0.126,-1.363c0.003,-0.212 0.003,-0.416 0.003,-0.628c0.005,-0.247 0.005,-0.493 0.005,-0.745l0,-14.25c0,-0.249 0,-0.497 -0.005,-0.743c0,-0.209 0,-0.419 -0.003,-0.627c-0.016,-0.456 -0.043,-0.913 -0.126,-1.363c-0.077,-0.457 -0.213,-0.882 -0.422,-1.296c-0.21,-0.408 -0.48,-0.782 -0.804,-1.104c-0.322,-0.323 -0.695,-0.594 -1.102,-0.803c-0.419,-0.211 -0.843,-0.347 -1.299,-0.427c-0.448,-0.081 -0.906,-0.109 -1.362,-0.12c-0.207,-0.003 -0.42,-0.007 -0.627,-0.009c-0.245,-0.001 -0.494,-0.001 -0.738,-0.001Z" style="fill:#a6a6a6;fill-rule:nonzero;"/><path d="M5.769,26.622c-0.207,0 -0.41,-0.002 -0.616,-0.007c-0.38,-0.011 -0.832,-0.032 -1.272,-0.111c-0.416,-0.075 -0.785,-0.198 -1.128,-0.373c-0.356,-0.18 -0.675,-0.413 -0.952,-0.692c-0.282,-0.277 -0.513,-0.595 -0.694,-0.951c-0.177,-0.344 -0.298,-0.713 -0.37,-1.129c-0.083,-0.458 -0.105,-0.923 -0.114,-1.276c-0.004,-0.144 -0.01,-0.622 -0.01,-0.622l0,-15.729c0,0 0.006,-0.471 0.01,-0.609c0.009,-0.357 0.031,-0.822 0.113,-1.275c0.073,-0.418 0.194,-0.787 0.37,-1.132c0.181,-0.357 0.413,-0.676 0.691,-0.952c0.282,-0.282 0.602,-0.515 0.955,-0.696c0.35,-0.177 0.719,-0.299 1.126,-0.37c0.458,-0.082 0.923,-0.103 1.277,-0.112l0.614,-0.008l128.358,0l0.622,0.008c0.349,0.009 0.814,0.03 1.265,0.111c0.411,0.072 0.782,0.194 1.138,0.373c0.349,0.179 0.669,0.412 0.948,0.692c0.278,0.276 0.512,0.597 0.696,0.956c0.176,0.348 0.296,0.717 0.365,1.123c0.079,0.429 0.104,0.87 0.118,1.285c0.002,0.192 0.002,0.4 0.002,0.606c0.006,0.255 0.006,0.498 0.006,0.743l0,14.25c0,0.248 0,0.489 -0.006,0.733c0,0.221 0,0.424 -0.002,0.633c-0.014,0.401 -0.039,0.842 -0.117,1.262c-0.07,0.417 -0.19,0.786 -0.368,1.137c-0.183,0.354 -0.416,0.673 -0.691,0.943c-0.281,0.285 -0.6,0.517 -0.953,0.697c-0.353,0.179 -0.713,0.298 -1.136,0.374c-0.436,0.079 -0.887,0.1 -1.272,0.111c-0.2,0.005 -0.409,0.007 -0.611,0.007l-0.738,0.002l-127.624,-0.002Z" style="fill:#2c2c2c;fill-rule:nonzero;stroke:#2c2c2c;stroke-width:1px;"/></g><g id="XMLID_1_"><path id="XMLID_2_" d="M20.986,16.192l-5.135,0l-1.242,3.575l-2.147,0l4.864,-13.473l2.25,0l4.865,13.473l-2.223,0l-1.232,-3.575Zm-4.603,-1.756l4.071,0l-1.951,-5.695l-0.159,0l-1.961,5.695Z" style="fill:#fff;fill-rule:nonzero;"/><path id="XMLID_6_" d="M36.319,14.678c0,3.23 -1.634,5.257 -4.202,5.257c-1.447,0 -2.596,-0.636 -3.128,-1.709l-0.158,0l0,4.92l-2.008,0l0,-13.547l1.933,0l0,1.681l0.149,0c0.616,-1.159 1.811,-1.849 3.194,-1.849c2.586,0 4.22,2.016 4.22,5.247Zm-2.063,0c0,-2.148 -1.018,-3.446 -2.718,-3.446c-1.69,0 -2.745,1.327 -2.745,3.456c0,2.119 1.055,3.444 2.736,3.444c1.709,0 2.727,-1.298 2.727,-3.454Z" style="fill:#fff;fill-rule:nonzero;"/><path id="XMLID_11_" d="M48.497,14.678c0,3.23 -1.634,5.257 -4.202,5.257c-1.446,0 -2.595,-0.636 -3.127,-1.709l-0.159,0l0,4.92l-2.007,0l0,-13.547l1.932,0l0,1.681l0.149,0c0.617,-1.159 1.812,-1.849 3.194,-1.849c2.586,0 4.22,2.016 4.22,5.247Zm-2.063,0c0,-2.148 -1.018,-3.446 -2.717,-3.446c-1.69,0 -2.745,1.327 -2.745,3.456c0,2.119 1.055,3.444 2.736,3.444c1.708,0 2.726,-1.298 2.726,-3.454Z" style="fill:#fff;fill-rule:nonzero;"/><rect id="XMLID_15_" x="51.274" y="5.631" width="2.007" height="14.136" style="fill:#fff;fill-rule:nonzero;"/><path id="XMLID_17_" d="M65.168,17.022c-0.458,1.819 -2.082,2.94 -4.408,2.94c-2.912,0 -4.696,-1.997 -4.696,-5.245c0,-3.251 1.821,-5.315 4.687,-5.315c2.83,0 4.538,1.933 4.538,5.127l0,0.7l-7.18,0l0,0.112c0.065,1.784 1.102,2.913 2.708,2.913c1.214,0 2.045,-0.438 2.418,-1.232l1.933,0Zm-7.059,-3.277l5.136,0c-0.047,-1.598 -1.018,-2.633 -2.503,-2.633c-1.484,0 -2.521,1.044 -2.633,2.633Z" style="fill:#fff;fill-rule:nonzero;"/><path id="XMLID_21_" d="M85.405,19.767l0,-9.73l-0.13,0l-3.95,9.338l-1.587,0l-3.95,-9.338l-0.13,0l0,9.73l-1.943,0l0,-13.473l2.446,0l4.286,10.233l0.159,0l4.295,-10.233l2.446,0l0,13.473l-1.942,0l0,0Z" style="fill:#fff;fill-rule:nonzero;"/><path id="XMLID_28_" d="M99.332,19.767l-1.932,0l0,-1.616l-0.16,0c-0.495,1.158 -1.53,1.811 -3.071,1.811c-2.25,0 -3.5,-1.373 -3.5,-3.763l0,-6.6l2.005,0l0,6.079c0,1.642 0.663,2.425 2.138,2.425c1.625,0 2.513,-0.961 2.513,-2.557l0,-5.947l2.007,0l0,10.168Z" style="fill:#fff;fill-rule:nonzero;"/><path id="XMLID_31_" d="M106.235,9.402c2.288,0 3.783,1.066 3.978,2.857l-1.923,0c-0.188,-0.747 -0.915,-1.224 -2.055,-1.224c-1.12,0 -1.97,0.534 -1.97,1.327c0,0.606 0.515,0.989 1.616,1.241l1.69,0.394c1.932,0.447 2.838,1.278 2.838,2.773c0,1.913 -1.783,3.192 -4.211,3.192c-2.419,0 -3.997,-1.093 -4.174,-2.894l2.007,0c0.254,0.784 1,1.269 2.213,1.269c1.252,0 2.139,-0.56 2.139,-1.372c0,-0.606 -0.476,-0.998 -1.493,-1.241l-1.775,-0.412c-1.933,-0.457 -2.829,-1.326 -2.829,-2.837c0,-1.801 1.653,-3.073 3.949,-3.073Z" style="fill:#fff;fill-rule:nonzero;"/><path id="XMLID_36_" d="M112.84,6.592c0,-0.699 0.552,-1.232 1.298,-1.232c0.747,0 1.298,0.533 1.298,1.232c0,0.691 -0.551,1.223 -1.298,1.223c-0.746,0 -1.298,-0.532 -1.298,-1.223Zm0.3,3.007l1.997,0l0,10.168l-1.997,0l0,-10.168Z" style="fill:#fff;fill-rule:nonzero;"/><path id="XMLID_39_" d="M125.027,12.922c-0.234,-0.989 -1.055,-1.727 -2.399,-1.727c-1.681,0 -2.707,1.289 -2.707,3.454c0,2.204 1.035,3.522 2.707,3.522c1.27,0 2.137,-0.58 2.399,-1.672l1.951,0c-0.261,2.044 -1.83,3.463 -4.341,3.463c-2.959,0 -4.771,-1.997 -4.771,-5.313c0,-3.259 1.801,-5.247 4.762,-5.247c2.548,0 4.089,1.485 4.35,3.52l-1.951,0l0,0Z" style="fill:#fff;fill-rule:nonzero;"/></g></g></svg>