<?xml version="1.0" encoding="UTF-8" standalone="no"?><!DOCTYPE svg PUBLIC "-//W3C//DTD SVG 1.1//EN" "http://www.w3.org/Graphics/SVG/1.1/DTD/svg11.dtd"><svg width="100%" height="100%" viewBox="0 0 57 21" version="1.1" xmlns="http://www.w3.org/2000/svg" xmlns:xlink="http://www.w3.org/1999/xlink" xml:space="preserve" style="fill-rule:evenodd;clip-rule:evenodd;stroke-linejoin:round;stroke-miterlimit:1.41421;"><g><path d="M0,0l4.553,0c4.583,0 5.015,1.604 5.015,7.545l0,6.072c0,5.234 -1.053,6.809 -5.52,6.809l-4.048,0l0,-20.426Zm2.76,18.048l1.426,0c2.094,0 2.436,-1.104 2.436,-4.611l0,-7.016c0,-3.027 -0.258,-4.045 -2.662,-4.045l-1.2,0l0,15.672Z" style="fill-rule:nonzero;"/><path d="M10.672,0l7.729,0l0,2.427l-4.968,0l0,6.406l4.599,0l0,2.392l-4.599,0l0,6.775l4.968,0l0,2.426l-7.729,0l0,-20.426Z" style="fill-rule:nonzero;"/><path d="M19.505,0l7.728,0l0,2.427l-4.968,0l0,6.406l4.6,0l0,2.392l-4.6,0l0,6.775l4.968,0l0,2.426l-7.728,0l0,-20.426Z" style="fill-rule:nonzero;"/><path d="M38.458,0l7.728,0l0,2.427l-4.968,0l0,6.406l4.601,0l0,2.392l-4.601,0l0,6.775l4.968,0l0,2.426l-7.728,0l0,-20.426Z" style="fill-rule:nonzero;"/><path d="M28.337,18.033l6.359,-15.641l-6.359,0l0,-2.392l9.017,0l0,2.392l-6.25,15.641l6.25,0l0,2.394l-9.017,-0.002l0,-2.392Z" style="fill-rule:nonzero;"/><path d="M47.29,0.001l4.417,0c4.13,0 4.42,1.053 4.42,5.522c0,2.743 -0.26,4.085 -2.579,4.792c1.923,0.198 2.582,1.202 2.582,3.124l0,4.442c0,0.736 0.006,1.696 0.177,2.545l-2.759,0c-0.285,-0.51 -0.183,-1.012 -0.183,-1.832l0,-4.611c0,-1.924 -0.365,-2.39 -2.232,-2.39l-1.082,0l0,8.834l-2.761,-0.001l0,-20.425Zm2.761,9.016l0.855,0c2.236,0 2.576,-0.276 2.576,-3.33c0,-3.028 -0.27,-3.295 -2.022,-3.295l-1.409,0l0,6.625Z" style="fill-rule:nonzero;"/></g></svg>