<?xml version="1.0" encoding="UTF-8" standalone="no"?><!DOCTYPE svg PUBLIC "-//W3C//DTD SVG 1.1//EN" "http://www.w3.org/Graphics/SVG/1.1/DTD/svg11.dtd"><svg width="100%" height="100%" viewBox="0 0 123 74" version="1.1" xmlns="http://www.w3.org/2000/svg" xmlns:xlink="http://www.w3.org/1999/xlink" xml:space="preserve" style="fill-rule:evenodd;clip-rule:evenodd;stroke-linejoin:round;stroke-miterlimit:1.41421;"><g id="Слой-1"><path d="M29.53,49.632c-0.493,-0.261 -0.911,-0.638 -1.389,-0.92l-1.028,-0.702c-0.128,-0.085 -0.222,-0.148 -0.346,-0.231l-0.522,-0.344c-0.452,-0.372 -1.684,-1.114 -2.236,-1.516l-0.107,-0.085c-0.01,-0.008 -0.051,-0.041 -0.053,-0.043l-0.694,-0.46c-0.418,-0.291 -1.204,-0.776 -1.547,-1.05c-0.322,-0.258 -0.712,-0.44 -1.042,-0.689c-0.363,-0.276 -0.898,-0.567 -1.197,-0.823c-0.113,-0.098 -0.241,-0.139 -0.348,-0.229l-0.52,-0.346c0.038,-0.161 0.17,-0.338 0.274,-0.463l1.085,-1.608c0.101,-0.15 0.189,-0.273 0.282,-0.423l1.373,-2.058c0.095,-0.142 0.172,-0.283 0.275,-0.43l0.844,-1.24c0.282,-0.352 0.47,-0.788 0.755,-1.136c0.039,-0.048 0.053,-0.067 0.082,-0.111c0.225,-0.332 0.428,-0.706 0.678,-1.021c0.049,-0.062 0.097,-0.137 0.142,-0.211c0.099,-0.163 0.174,-0.276 0.276,-0.429c0.325,-0.487 0.665,-0.964 0.969,-1.468c0.06,-0.099 0.089,-0.121 0.152,-0.2c0.273,-0.346 0.448,-0.787 0.745,-1.114c0.22,-0.241 0.444,-0.678 0.634,-0.969c0.086,-0.133 0.241,-0.264 0.283,-0.423c0.085,0.02 0.99,0.655 1.18,0.775l0.488,0.347c0.116,0.077 0.224,0.146 0.343,0.234l0.691,0.463c0.098,0.05 0.071,0.048 0.147,0.109c0.21,0.169 0.451,0.3 0.672,0.45c0.08,0.055 0.095,0.079 0.161,0.128l0.344,0.233c0.356,0.247 0.755,0.464 1.089,0.738c0.034,0.028 0.057,0.046 0.091,0.069l1.509,1.025c0.227,0.166 0.456,0.279 0.667,0.455c0.305,0.255 0.693,0.446 1.019,0.68l0.326,0.251c0.334,0.213 0.68,0.429 0.99,0.677c0.115,0.091 0.235,0.144 0.351,0.226c0.188,0.134 0.475,0.388 0.705,0.449c-0.014,0.165 -0.149,0.309 -0.247,0.427c-0.107,0.129 -0.163,0.271 -0.26,0.413c-0.159,0.236 -0.279,0.482 -0.452,0.702c-0.237,0.301 -0.409,0.665 -0.618,0.985c-0.091,0.14 -0.188,0.248 -0.276,0.398l-0.27,0.435c-0.092,0.147 -0.154,0.276 -0.259,0.414c-0.102,0.135 -0.202,0.281 -0.279,0.426c-0.075,0.141 -0.168,0.275 -0.266,0.407c-0.069,0.093 -0.072,0.127 -0.133,0.22l-1.756,2.733c-0.053,0.078 -0.079,0.117 -0.122,0.199l-1.216,1.893c-0.091,0.153 -0.2,0.263 -0.28,0.426c-0.159,0.322 -0.621,0.92 -0.802,1.249c-0.048,0.086 -0.09,0.141 -0.139,0.214c-0.049,0.074 -0.083,0.139 -0.134,0.218l-0.265,0.409c-0.264,0.334 -0.421,0.716 -0.672,1.059c-0.058,0.08 -0.096,0.13 -0.147,0.206Zm55.774,3.378l2.911,0.022l0.025,10.061l2.729,-0.053l-0.001,-10.013l2.909,-0.004l-0.032,-2.762l-8.57,0.081l0.029,2.668Zm18.389,7.351l0.038,2.732l8.184,-0.035c0.04,-0.596 0.076,-1.762 0.027,-2.341c-0.093,-1.077 -2.515,-2.98 -2.992,-4.037c0.868,-1.674 2.929,-2.861 2.993,-4.179c0.029,-0.614 0.02,-1.595 -0.035,-2.203c-1.017,-0.1 -7.536,-0.147 -8.227,0.058l0.029,2.653l4.746,0.028c-0.479,1.152 -2.185,2.44 -2.826,3.643c0.441,0.814 2.743,3.12 2.839,3.664l-4.776,0.017Zm-24.833,-7.341l3,0.014l0.057,1.223l2.726,-0.003l-0.054,-3.99l-8.548,0.016l0.029,12.813l8.569,-0.002l-0.038,-4.005l-2.679,0.021l-0.099,1.236l-3.028,-0.018l0.065,-7.305Zm-9.066,0.012l1.768,0.038l0.357,4.238l-2.494,-0.01l0.369,-4.266Zm-0.608,7.048l2.995,0.018l0.317,2.996l2.718,-0.016l-1.278,-12.811l-6.544,0.004l-1.202,12.821l2.701,-0.008l0.293,-3.004Zm28.569,-6.966c0.586,-0.131 1.228,-0.213 1.75,0.126l0.341,4.062l-2.489,0.007l0.398,-4.195Zm-0.665,7.066c0.778,-0.243 2.363,-0.23 3.037,0.005l0.258,2.893l2.764,0l-1.272,-12.772l-6.405,0.085c-0.322,-0.564 -1.354,12.296 -1.317,12.706l2.673,-0.018l0.262,-2.899Zm-5.128,-24.785l5.214,0.063c-0.188,0.53 -2.691,3.431 -3.148,3.846c0.499,1.268 2.528,2.777 3.164,4.081l-5.205,0.029l-0.031,2.913l8.963,0.074c0.014,-0.748 0.071,-1.895 0.004,-2.591c-0.118,-1.21 -2.884,-3.265 -3.256,-4.478c0.705,-0.84 3.183,-3.396 3.26,-4.327c0.053,-0.644 0.018,-1.874 -0.031,-2.531l-8.925,-0.007l-0.009,2.928Zm-34.592,19.64c0.794,0.71 1.722,3.209 2.555,4.189c0.807,-0.607 1.873,-3.715 2.65,-4.206l0.05,8.078l2.698,-0.004l-0.048,-12.828l-2.658,0.033c-0.935,1.135 -1.957,3.888 -2.716,4.536l-2.549,-4.567l-2.767,0.05l0.025,12.773l2.735,-0.041l0.025,-8.013Zm28.008,-19.563l1.873,-0.018l0.455,4.669l-2.727,0l0.399,-4.651Zm-3.985,10.921l3.01,-0.014l0.272,-3.22l3.268,-0.034l0.306,3.199l2.968,0.076l-1.308,-13.8c-0.436,-0.195 -0.259,-0.123 -0.818,-0.144c-0.272,-0.011 -0.624,0.007 -0.905,0.009c-1.214,0.006 -4.728,-0.095 -5.444,0.073l-1.349,13.855Zm20.945,-5.232l6.244,0.009l0.019,2.231l-6.267,0.022l0.008,2.971l9.267,-0.001l-0.006,-13.885l-2.985,-0.031l-0.014,5.688l-3.244,0.003l-0.03,-5.653l-2.957,-0.058l-0.035,8.704Zm-44.415,2.258c-0.135,-0.742 0.804,-6.738 1.006,-7.972l2,0.054l-0.069,7.919l-2.937,-0.001Zm-3.013,-0.011l-1.148,0.037l-0.001,4.753l2.935,0.024l0.018,-1.768l5.36,-0.051l0.027,1.821l2.954,-0.003l0.011,-4.797l-1.074,-0.017l-0.079,-10.9l-7.526,-0.038l-1.477,10.939Zm28.804,-31.351l4.476,0.03l0.022,15.408l4.189,0.038l0.023,-15.46l4.483,-0.018c0.012,-1.015 0.166,-3.375 -0.106,-4.198l-13.018,-0.002l-0.069,4.202Zm-18.512,34.335l3.119,0.002c0.386,-1.02 0.977,-2.095 1.43,-3.063c1.116,-2.385 0.884,-2.492 1.95,-2.455l0.036,5.503l2.983,0.008l0.015,-5.496c1.076,-0.091 0.97,0.3 1.98,2.442c0.413,0.876 0.928,2.15 1.452,2.996l3.203,0.072c-0.637,-1.562 -3.069,-6.097 -3.292,-6.857c-0.318,-1.086 2.734,-5.51 2.981,-7.072l-2.932,-0.01c-0.41,0.7 -0.999,2.051 -1.392,2.892c-0.997,2.135 -0.903,2.583 -1.995,2.471l-0.021,-5.33l-2.962,-0.031l-0.024,5.369c-1.075,0.103 -0.791,0.131 -1.957,-2.378c-0.423,-0.911 -0.978,-2.137 -1.442,-2.982l-2.985,-0.006c0.384,1.183 3.155,6.171 3.087,6.839c-0.067,0.67 -2.963,5.803 -3.234,7.086Zm37.522,-27.088l4.469,0.002l-0.028,4.014l-4.463,-0.029l0.022,-3.987Zm-4.241,8.199l12.899,0.032l0.022,-12.444l-8.68,-0.002l-0.027,-7.181l-4.198,-0.035l-0.016,19.63Zm-22.602,-15.424c0.477,0.002 0.934,0.001 1.393,-0.003l0.88,0.031c0.047,0.008 0.089,0.021 0.13,0.029l0.872,6.535l-3.829,0.01l0.554,-6.602Zm-5.62,15.406l4.239,0.034l0.387,-4.595l4.608,-0.027l0.463,4.618l4.187,0.016l-1.871,-19.557c-0.848,-0.239 -8.769,-0.162 -10.103,-0.079l-1.91,19.59Zm-9.282,-15.306c0.742,-0.228 1.977,-0.11 2.839,-0.09l0.02,11.224l-4.33,0.004l1.471,-11.138Zm-7.217,11.146l-0.031,6.781l4.169,0.011l0.011,-2.519l7.525,-0.066l0.032,2.538l4.209,0.046l0.001,-6.779l-1.611,-0.036l-0.021,-15.431l-10.513,0.002c-0.384,0.798 -1.483,10.385 -1.803,12.608c-0.502,3.484 -0.007,2.817 -1.968,2.845Zm-8.588,32.468c-1.617,0.108 -3.652,0.061 -5.179,-0.286c-1.702,-0.387 -2.302,-1.091 -3.777,-1.593c-1.892,-0.644 -3.016,-0.263 -4.741,-0.643c-1.233,-0.271 -3.658,-1.527 -3.709,0.568c0.451,0.875 1.388,1.127 2.496,1.384c1.343,0.311 1.834,0.658 2.863,1.19c-0.642,0.384 -3.596,0.645 -4.596,0.75c-1.696,0.179 -3.618,-0.123 -5.394,-0.046c-0.987,0.043 -1.448,0.13 -2.268,0.423c-0.82,0.293 -1.248,-0.047 -2.221,-0.063c-1.248,-0.021 -1.275,0.218 -2.062,0.572c-0.855,0.384 -1.403,-0.167 -2.098,0.575c0.09,1.374 2.068,1.172 3.115,1.626c0.628,0.272 0.342,0.647 1.357,1.066c0.622,0.257 1.385,0.39 2.089,0.471l9.044,0.791c3.208,0.307 6.212,0.347 9.497,0.359c3.146,0.012 6.677,0.101 9.79,-0.068c0.237,-1 0.124,-54.626 -0.02,-55.135l-4.122,-0.008l-0.064,48.067Zm-14.409,-35.304c-0.35,1.141 -0.451,1.114 -0.495,2.542c-0.715,0.585 -1.135,0.624 -1.798,1.439c-0.114,0.14 -0.132,0.187 -0.258,0.343c-0.189,0.234 -0.088,0.14 -0.287,0.32c-0.45,-0.309 -0.773,-0.697 -1.373,-1.031c-0.881,-0.49 -0.878,-0.138 -1.179,-1.208c-0.334,-1.186 -1.191,-2.597 -0.78,-3.943c0.223,-0.734 0.54,-0.988 1.375,-1.06c2.016,-0.172 1.729,0.088 3.396,1.458c0.478,0.393 1.015,0.644 1.399,1.14Zm-22.015,-12.748l-0.061,55.116l4.202,0.03l0.072,-45.285c3.729,0.14 5.082,2.665 7.786,4.533c2.098,1.449 2.243,2.855 4.842,4.276c0.714,0.39 1.457,0.602 2.156,0.957l0.1,0.022l-0.016,0.026l-0.769,1.154c-0.052,0.078 -0.099,0.147 -0.154,0.23c-0.108,0.161 -0.193,0.311 -0.301,0.469c-0.067,0.099 -0.107,0.12 -0.168,0.217c-0.042,0.066 -0.034,0.067 -0.068,0.125l-0.769,1.154c-0.305,0.519 -0.693,0.984 -0.999,1.502l-1.383,2.079c-0.116,0.169 -0.199,0.313 -0.313,0.488l-0.929,1.38c-0.186,0.226 -1.811,2.742 -2.143,3.243l-1.084,1.609c-0.054,0.084 -0.102,0.153 -0.154,0.231l-0.468,0.686c-0.048,0.063 -0.121,0.201 -0.141,0.275c0.088,0.121 0.248,0.172 0.358,0.251l1.196,0.824c0.038,0.032 0.01,0.011 0.052,0.045c0.062,0.049 0.118,0.087 0.184,0.136l1.843,1.235c0.166,0.096 0.206,0.164 0.348,0.261c0.135,0.091 0.252,0.156 0.392,0.249l0.539,0.359c0.006,0.004 0.013,0.009 0.019,0.013l0.071,0.058c0.461,0.379 1.934,1.251 2.301,1.578l3.309,2.237c0.065,0.045 0.093,0.074 0.167,0.122c0.245,0.16 0.711,0.558 0.956,0.615c0.024,-0.106 0.574,-0.918 0.678,-1.117l2.926,-4.64c0.104,-0.158 0.172,-0.317 0.275,-0.463c0.051,-0.072 0.095,-0.117 0.147,-0.205l0.558,-0.917c0.053,-0.074 0.092,-0.115 0.148,-0.205c0.101,-0.167 0.174,-0.301 0.276,-0.461l0.263,-0.442c0.064,-0.093 0.084,-0.095 0.149,-0.204c0.049,-0.083 0.095,-0.14 0.148,-0.237c0.091,-0.17 0.162,-0.288 0.272,-0.433l0.282,-0.455c0.093,-0.157 0.178,-0.268 0.269,-0.437l2.243,-3.559c0.091,-0.165 0.181,-0.313 0.279,-0.459c-0.121,-0.028 -0.578,-0.344 -0.688,-0.434c-0.323,-0.266 -0.7,-0.446 -1.035,-0.697l-1.707,-1.178c-0.232,-0.156 -0.452,-0.299 -0.693,-0.461l-0.68,-0.474c-0.696,-0.435 -1.365,-0.926 -2.039,-1.392c-0.26,-0.18 -0.833,-0.507 -1.037,-0.694c-0.229,-0.208 -0.744,-0.501 -1.035,-0.696c-0.033,-0.022 -0.038,-0.025 -0.075,-0.053l-1.976,-1.358c0.073,-0.099 0.13,-0.146 0.16,-0.257c0.137,0.012 0.252,0.115 0.359,0.186l0.314,0.231c0.111,0.074 0.213,0.131 0.334,0.211l1.782,1.2c0.058,0.041 0.106,0.073 0.169,0.119c0.11,0.079 0.215,0.136 0.331,0.214l2.621,1.74c0.144,0.084 0.189,0.143 0.316,0.229c0.373,0.253 0.771,0.491 1.129,0.762l1.815,1.199c0.052,0.035 0.095,0.066 0.154,0.103l0.248,0.168c0.182,0.15 0.382,0.252 0.579,0.383c0.11,0.074 0.24,0.183 0.365,0.212c-0.085,-0.127 -0.476,-0.341 -0.632,-0.458l-1.754,-1.228c-0.071,-0.048 -0.117,-0.056 -0.184,-0.104c-0.417,-0.307 -0.872,-0.585 -1.272,-0.908c-0.094,-0.076 -0.226,-0.153 -0.326,-0.22c-0.263,-0.175 -0.559,-0.343 -0.794,-0.552c-0.152,-0.135 -0.323,-0.225 -0.495,-0.339c-0.117,-0.078 -0.204,-0.149 -0.324,-0.221c-0.125,-0.074 -0.21,-0.137 -0.318,-0.227c-0.119,-0.099 -0.201,-0.132 -0.323,-0.222l-1.933,-1.337c-0.114,-0.075 -0.222,-0.138 -0.324,-0.221c-0.109,-0.088 -0.187,-0.158 -0.311,-0.233l-1.302,-0.879c0.028,-0.119 0.053,-0.09 0.065,-0.225l1,0.667c0.125,0.081 0.229,0.146 0.352,0.225l0.493,0.34c0.321,0.209 0.674,0.391 0.973,0.631l0.106,0.086c0.302,0.226 0.639,0.41 0.957,0.614l0.498,0.335c0.22,0.147 0.474,0.28 0.677,0.446c0.276,0.228 0.708,0.488 1.022,0.677c0.131,0.079 0.185,0.145 0.314,0.231l1.027,0.672c0.316,0.239 0.693,0.423 1.013,0.654c0.067,0.048 0.093,0.081 0.16,0.129c0.267,0.194 0.574,0.401 0.861,0.55l0.672,0.45c0.116,0.074 0.216,0.145 0.326,0.218c0.116,0.077 0.237,0.147 0.353,0.224c-0.017,0.213 -0.179,0.357 -0.192,0.513l0.609,-0.833c-0.071,-0.098 -0.04,-0.039 -0.145,-0.111l-1.192,-0.796c-0.569,-0.45 -1.629,-1.056 -2.25,-1.502c-0.005,-0.004 -0.012,-0.01 -0.018,-0.014l-1.473,-0.995c-0.278,-0.186 -0.59,-0.356 -0.849,-0.562c-0.373,-0.297 -0.808,-0.519 -1.19,-0.797l-0.868,-0.575c-0.347,-0.211 -0.882,-0.626 -1.196,-0.792c-0.15,-0.08 -0.209,-0.149 -0.341,-0.236l-0.852,-0.559c-0.142,-0.092 -0.305,-0.251 -0.468,-0.318c0.444,-0.321 1.005,-0.585 1.477,-0.898c0.554,-0.368 0.962,-0.632 1.482,-1.053c1.836,-1.486 3.651,-4.585 2.273,-7.097c-0.889,-1.621 -1.831,-2.108 -2.279,-3.055c7.898,-0.362 9.263,4.655 12.624,3.054c-0.549,-1.256 -7.173,-5.303 -8.749,-5.628c2.991,-0.254 7.246,1.177 7.841,-0.229c-1.632,-1.934 -11.719,-2.633 -11.847,-2.692c0.228,-1.023 0.987,-0.829 1.93,-1.1c0.91,-0.261 1.377,-0.738 2.056,-0.962c0.897,-0.297 4.253,-0.231 3.535,-2.138c-1.866,-0.172 -8.005,1.132 -10.197,1.766c-2.438,0.705 -16.003,0.061 -19.895,0.305Zm-2.673,-2.638l107.969,-0.022l0.028,60.409l-107.96,0.013l-0.037,-60.4Zm-1.878,62.253l111.711,0.027l0.045,-64.148l-111.707,-0.028l-0.049,64.149Zm22.574,-25.066c-0.312,0 -0.478,-0.007 -0.674,-0.287c-0.222,-0.319 -0.224,-0.406 -0.224,-0.803c0,-0.219 0.133,-0.507 0.374,-0.619l1.454,-0.599c0.33,-0.15 0.217,-0.091 0.499,-0.174c0.156,-0.045 1.039,-0.448 1.264,-0.467c0.031,0.132 0.089,0.302 0.141,0.436l0.385,1.09c0.038,0.097 0.059,0.132 0.083,0.237c-0.115,0.003 -1.006,0.359 -1.223,0.444l-1.011,0.4c-0.305,0.124 -0.785,0.342 -1.068,0.342Zm3.142,-3.173c0.078,-0.018 0.189,-0.055 0.289,-0.064l0.609,1.699c-0.12,0.057 -0.23,0.12 -0.321,0.128c-0.015,-0.186 -0.388,-1.124 -0.436,-1.295l-0.141,-0.468Zm0.737,-0.289l0.321,-0.128c0.05,0.215 0.156,0.431 0.229,0.637c0.019,0.054 0.061,0.151 0.078,0.21l0.138,0.439c0.028,0.086 0.044,0.128 0.078,0.211c0.035,0.087 0.05,0.16 0.086,0.234c-0.156,0.036 -0.186,0.114 -0.352,0.128c-0.022,-0.254 -0.349,-0.982 -0.436,-1.295l-0.142,-0.436Zm0.802,-0.32c0.126,-0.03 0.293,-0.114 0.416,-0.161l0.327,-0.123c0.457,-0.211 1.113,-0.456 1.543,-0.143c0.171,0.125 0.331,0.396 0.373,0.621c0.101,0.549 -0.237,0.722 -0.716,0.915c-0.185,0.074 -0.288,0.139 -0.464,0.209l-0.688,0.306c-0.105,0.045 -0.131,0.08 -0.246,0.107c-0.009,-0.113 -0.025,-0.103 -0.051,-0.206c-0.096,-0.383 -0.317,-0.841 -0.378,-1.064l-0.116,-0.461Zm-1.347,-0.834l-0.062,0.037l0.062,-0.037Zm0.802,-0.288l-0.063,0.036l0.063,-0.036Zm0,0c0.005,-0.006 0.015,-0.02 0.017,-0.015l0.079,-0.178c-0.249,-0.132 -0.545,-0.047 -0.609,0.193c0.1,0.052 0.1,0.064 0.256,0.064c-0.037,0.101 0.07,0.046 -0.096,0.064c0.033,0.142 0.093,0.222 0.096,0.384c-0.09,0.008 -0.219,0.063 -0.288,0.097c-0.051,-0.107 -0.071,-0.212 -0.128,-0.321l-0.129,0c0.067,-0.099 0.096,-0.071 0.129,-0.192c-0.16,-0.085 -0.342,-0.11 -0.529,0.016c-0.273,0.184 0.162,0.267 0.176,0.272c-0.009,0.006 -0.039,0.026 -0.045,0.029l-0.051,0.035c0.013,0.157 0.066,0.192 0.096,0.321c-0.076,0.037 -0.197,0.075 -0.289,0.096c-0.025,-0.109 -0.067,-0.165 -0.096,-0.288c-0.109,0.009 -0.117,0.024 -0.192,0.064c0.03,-0.114 0.034,-0.099 0.16,-0.129c-0.007,-0.329 -0.462,-0.246 -0.609,0.033c0.095,0.063 0.129,0.092 0.288,0.096l-0.128,0.096c0.058,0.109 0.077,0.214 0.128,0.32c-0.128,0.011 -0.507,0.19 -0.701,0.261l-0.939,0.375c-0.293,0.144 -0.506,0.16 -0.707,0.288c-0.22,0.14 -0.411,0.172 -0.643,0.35c-0.397,0.303 -0.328,0.147 -0.719,0.307c-0.479,0.197 -1.237,0.418 -1.78,0.497c-0.114,0.016 -0.232,0.018 -0.321,0.031c-0.595,0.093 -1.408,-0.011 -1.942,-0.352c-0.078,-0.051 -0.153,-0.08 -0.231,-0.122c-0.2,0.096 -0.246,0.066 -0.298,0.443c-0.058,0.427 0.202,1.372 0.372,1.792l0.341,0.748c0.06,0.104 0.093,0.133 0.156,0.229c0.182,0.277 0.237,0.396 0.513,0.61c0.085,0.066 0.149,0.09 0.295,0.09l0.204,-0.501c0.187,-0.564 0.172,-0.681 0.606,-1.158l0.352,-0.353c0.081,-0.081 0.111,-0.09 0.192,-0.161l0.415,-0.29c0.12,-0.092 0.794,-0.457 0.924,-0.487c0,0.616 0.17,1.407 0.779,1.69c0.479,0.222 1.204,0.015 1.662,-0.146c0.086,-0.031 0.104,-0.053 0.177,-0.08c0.073,-0.027 0.145,-0.027 0.209,-0.048c0.072,-0.023 0.099,-0.043 0.159,-0.065c0.07,-0.027 0.134,-0.041 0.193,-0.064l1.096,-0.411c0.124,-0.053 0.621,-0.255 0.759,-0.267c0.033,0.144 0.114,0.246 0.128,0.417l0.191,-0.037c0.014,0.154 -0.033,0.061 0.065,0.133l0.127,-0.036l-0.035,-0.187c0.098,-0.024 0.051,0.003 0.101,-0.065c-0.035,-0.149 -0.094,-0.301 -0.128,-0.449c0.183,-0.015 0.016,0.004 0.144,-0.048c0.071,-0.028 0.079,-0.017 0.144,-0.048c0.099,0.425 0.162,0.416 0.321,0.416l0.064,0.129c0.086,-0.007 0.087,-0.015 0.16,-0.032c-0.018,-0.078 -0.033,-0.129 -0.064,-0.193c0.099,-0.008 0.061,0.001 0.128,-0.032c-0.022,-0.095 -0.043,-0.123 -0.077,-0.243c-0.024,-0.086 -0.052,-0.173 -0.083,-0.238c0.099,-0.026 0.055,-0.024 0.156,-0.068c0.057,-0.026 0.091,-0.043 0.165,-0.06c0.034,0.072 0.153,0.398 0.16,0.481c0.073,-0.017 0.074,-0.025 0.16,-0.032l0.064,0.096l0.064,0.032c0.063,-0.016 0.05,-0.006 0.097,-0.032l-0.037,-0.191l0.101,-0.001c-0.003,-0.13 -0.115,-0.449 -0.161,-0.545c0.182,-0.122 0.495,-0.214 0.823,-0.396l0.546,-0.256c0.138,-0.064 0.144,-0.099 0.255,-0.161c0.179,-0.101 0.198,-0.077 0.388,-0.222c0.395,-0.301 0.59,-0.841 0.465,-1.345c-0.048,-0.191 -0.153,-0.537 -0.266,-0.664c-0.004,-0.005 -0.012,-0.011 -0.016,-0.016l-0.335,-0.37c0.062,-0.017 1.035,-0.435 1.058,-0.61c-0.02,-0.084 -0.029,-0.094 -0.064,-0.16c-0.215,0.005 -0.283,0.102 -0.444,0.165c-0.081,0.031 -0.13,0.059 -0.218,0.103l-0.675,0.29c-0.154,0.051 -0.043,-0.043 -0.402,0.012c-0.807,0.124 -0.876,0.115 -1.696,0.388c-0.085,0.028 -0.149,0.057 -0.239,0.081c-0.089,0.024 -0.188,0.032 -0.27,0.051c-0.014,-0.175 -0.083,-0.196 -0.096,-0.352c-0.058,0.029 -0.04,0.024 -0.128,0.032Zm1.314,4.199l-0.064,-0.032l0,0.064l0.064,-0.032Zm6.156,-6.283l-0.032,-0.032l0.032,0.032Zm0,0l0.063,0.037l-0.063,-0.037Z" style="fill:#1c1917;"/></g></svg>