<?xml version="1.0" encoding="UTF-8" standalone="no"?><!DOCTYPE svg PUBLIC "-//W3C//DTD SVG 1.1//EN" "http://www.w3.org/Graphics/SVG/1.1/DTD/svg11.dtd"><svg width="100%" height="100%" viewBox="0 0 231 41" version="1.1" xmlns="http://www.w3.org/2000/svg" xmlns:xlink="http://www.w3.org/1999/xlink" xml:space="preserve" style="fill-rule:evenodd;clip-rule:evenodd;stroke-linecap:round;stroke-linejoin:round;stroke-miterlimit:22.9256;"><g><path d="M97.644,21.612c-0.442,-0.949 -1.135,-2.391 -1.992,-4.051c-2.596,-5.026 -6.695,-12.062 -9.859,-13.523c-4.631,5.201 -2.55,24.946 7.563,33.244" style="fill:none;stroke:#2c2c2c;stroke-width:5.66px;"/><path d="M119.044,22.612c0,0.356 -0.374,5.584 -0.034,5.591c0.299,0.006 2.766,-2.245 3.483,-2.608c4.474,-2.269 1.922,-5.434 4.342,-0.167c0.344,0.75 1.155,1.669 1.395,2.486" style="fill:none;stroke:#2c2c2c;stroke-width:5.66px;"/><path d="M121.472,16.42c0,-3.385 0.554,-10.544 1.968,-13.591" style="fill:none;stroke:#2c2c2c;stroke-width:5.66px;"/><path d="M133.939,30.655c0,-3.994 -0.289,-10.93 0.263,-14.314c0.792,2.596 5.066,15.801 6.692,17.467" style="fill:none;stroke:#2c2c2c;stroke-width:5.66px;"/><path d="M122.784,36.319c4.694,-0.174 6.791,-0.234 11.612,-1.118c0.611,-0.112 11.838,-2.687 12.273,-0.819" style="fill:none;stroke:#2c2c2c;stroke-width:5.66px;"/><path d="M143.782,20.184c2.714,1.398 6.062,3.16 9.186,3.596c0.526,0.073 -1.904,0.939 -2.538,1.264c-0.637,0.327 -4.492,2.259 -5.074,2.431" style="fill:none;stroke:#2c2c2c;stroke-width:5.66px;"/><path d="M151.918,17.914c0.505,4.969 2.42,8.964 3.281,13.526" style="fill:none;stroke:#2c2c2c;stroke-width:5.66px;"/><path d="M159.775,17.057c-1.424,2.629 -2.499,4.148 -4.455,6.078c17.906,-2.303 67.293,-8.543 71.917,-6.846" style="fill:none;stroke:#2c2c2c;stroke-width:5.66px;"/><path d="M74.754,25.115c-21.443,2.963 -51.105,6.799 -71.916,10.796" style="fill:none;stroke:#2c2c2c;stroke-width:5.68px;"/><path d="M105.476,25.387c0.656,-0.187 4.993,-1.607 5.425,-1.875c1.421,-0.882 1.862,0.091 1.711,-2.25c-0.057,-0.88 -4.219,-0.797 -5.293,0.596c-0.618,0.802 -1.532,1.779 -1.571,2.872c-0.07,1.954 -1.384,3.03 1.571,3.614c1.204,0.238 1.978,0.168 3.157,0.168" style="fill:none;stroke:#2c2c2c;stroke-width:5.67px;"/></g></svg>