<?xml version="1.0" encoding="UTF-8" standalone="no"?><!DOCTYPE svg PUBLIC "-//W3C//DTD SVG 1.1//EN" "http://www.w3.org/Graphics/SVG/1.1/DTD/svg11.dtd"><svg width="100%" height="100%" viewBox="0 0 102 158" version="1.1" xmlns="http://www.w3.org/2000/svg" xmlns:xlink="http://www.w3.org/1999/xlink" xml:space="preserve" style="fill-rule:evenodd;clip-rule:evenodd;stroke-linecap:round;stroke-linejoin:round;stroke-miterlimit:22.9256;"><g><path d="M65.185,13.755c10.214,8.505 20.503,13.072 30.866,13.701" style="fill:none;stroke:#2c2c2c;stroke-width:4.25px;"/><path d="M96.682,30.447c1.276,-23.799 -29.936,-37.727 -45.354,-20.945c-8.011,5.653 -11.633,14.105 -10.866,25.355" style="fill:none;stroke:#2c2c2c;stroke-width:4.25px;"/><path d="M51.328,9.502c-1.035,-1.232 -2.19,-2.019 -3.465,-2.362" style="fill:none;stroke:#2c2c2c;stroke-width:4.25px;"/><path d="M57.785,15.644c-3.403,11.779 -12.015,16.188 -14.804,27.086" style="fill:none;stroke:#2c2c2c;stroke-width:4.25px;"/><path d="M70.226,37.376c-4.235,-2.591 -8.907,-3.588 -14.016,-2.992" style="fill:none;stroke:#2c2c2c;stroke-width:4.25px;"/><path d="M65.344,43.123c-2.685,-1.557 -5.94,-2.056 -9.764,-1.496" style="fill:none;stroke:#2c2c2c;stroke-width:4.25px;"/><path d="M78.1,47.218c2.72,1.04 4.819,2.641 6.299,4.803" style="fill:none;stroke:#2c2c2c;stroke-width:4.25px;"/><path d="M80.068,41.627c5.542,2.284 8.639,4.856 9.292,7.717" style="fill:none;stroke:#2c2c2c;stroke-width:4.25px;"/><path d="M74.007,55.408c-0.79,1.686 -2.426,2.818 -4.283,2.965c-1.856,0.147 -3.649,-0.715 -4.694,-2.257c-2.167,-0.778 -3.295,-1.907 -3.386,-3.386c-4.346,3.407 -7.731,8.314 -10.157,14.725" style="fill:none;stroke:#2c2c2c;stroke-width:4.25px;"/><path d="M74.007,65.644c-5.99,0.019 -11.345,-2.344 -16.064,-7.087" style="fill:none;stroke:#2c2c2c;stroke-width:4.25px;"/><path d="M90.7,29.817c0.207,6.109 -0.239,12.619 -1.34,19.527" style="fill:none;stroke:#2c2c2c;stroke-width:4.25px;"/><path d="M87.235,54.069c-0.375,9.28 -4.575,16.892 -12.598,22.835c-6.667,5.876 -13.596,6.296 -20.788,1.26c-9.225,-5.815 -13.32,-15.421 -12.283,-28.82" style="fill:none;stroke:#2c2c2c;stroke-width:4.25px;"/><path d="M43.909,39.828c-0.276,-2.11 -1.9,-3.789 -3.998,-4.136c-5.86,-0.968 -7.017,6.752 -4.961,10.951c1.281,2.615 3.654,4.529 6.48,5.227" style="fill:none;stroke:#2c2c2c;stroke-width:4.25px;"/><path d="M65.939,107.62c5.58,-5.284 17.538,-2.179 16.958,6.123c-0.479,6.833 -9.396,9.652 -15.262,9.845c-7.478,0.246 -18.346,-3.913 -17.394,-13.078c0.671,-6.47 8.617,-9.73 14.409,-9.931l0.748,-4.377l3.014,2.362c3.5,-0.583 6.398,-0.197 8.695,1.159l3.76,-1.506l-0.528,4.918" style="fill:none;stroke:#2c2c2c;stroke-width:4.24px;"/><path d="M32.276,116.586c23.125,2.475 38.19,8.407 45.197,17.796" style="fill:none;stroke:#2c2c2c;stroke-width:4.25px;"/><path d="M77.473,134.382c1.65,8.374 -0.187,14.779 -5.512,19.213c-27.142,4.19 -44.061,1.812 -52.756,-4.725c-31.254,-23.496 -15.812,-81.252 15.745,-102.227" style="fill:none;stroke:#2c2c2c;stroke-width:4.25px;"/><path d="M72.554,153.08c11.452,1.327 19.792,-3.67 20.667,-9.722c0.799,-5.517 -6.338,-10.21 -15.748,-8.976" style="fill:none;stroke:#2c2c2c;stroke-width:4.25px;"/><path d="M89.757,107.609c11.109,12.601 12.275,24.044 3.496,34.327" style="fill:none;stroke:#2c2c2c;stroke-width:4.25px;"/><path d="M79.268,72.853c14.993,11.477 20.518,25.898 16.574,43.264" style="fill:none;stroke:#2c2c2c;stroke-width:4.25px;"/><path d="M37.159,88.868c5.515,1.488 16.733,6.206 20.861,13.107" style="fill:none;stroke:#2c2c2c;stroke-width:4.25px;"/><path d="M70.183,65.317c-5.687,7.482 -10.722,5.754 -15.106,-5.185" style="fill:none;stroke:#2c2c2c;stroke-width:4.25px;"/></g></svg>