<?xml version="1.0" encoding="UTF-8" standalone="no"?><!DOCTYPE svg PUBLIC "-//W3C//DTD SVG 1.1//EN" "http://www.w3.org/Graphics/SVG/1.1/DTD/svg11.dtd"><svg width="100%" height="100%" viewBox="0 0 69 21" version="1.1" xmlns="http://www.w3.org/2000/svg" xmlns:xlink="http://www.w3.org/1999/xlink" xml:space="preserve" style="fill-rule:evenodd;clip-rule:evenodd;stroke-linejoin:round;stroke-miterlimit:1.41421;"><g id="Layer-1"><path d="M16.522,9.072c-3.243,-1.926 -8.592,-2.103 -11.688,-1.163c-0.497,0.15 -1.022,-0.13 -1.173,-0.627c-0.151,-0.498 0.13,-1.023 0.627,-1.174c3.554,-1.079 9.461,-0.871 13.194,1.345c0.448,0.266 0.594,0.843 0.329,1.29c-0.265,0.447 -0.843,0.594 -1.289,0.329m-0.106,2.852c-0.228,0.369 -0.711,0.485 -1.079,0.259c-2.704,-1.662 -6.826,-2.144 -10.025,-1.173c-0.414,0.125 -0.853,-0.108 -0.979,-0.522c-0.125,-0.415 0.109,-0.852 0.523,-0.978c3.654,-1.109 8.196,-0.572 11.302,1.336c0.368,0.227 0.484,0.71 0.258,1.078m-1.231,2.74c-0.181,0.296 -0.567,0.389 -0.862,0.208c-2.363,-1.444 -5.336,-1.77 -8.838,-0.97c-0.338,0.078 -0.674,-0.134 -0.751,-0.471c-0.077,-0.338 0.134,-0.674 0.472,-0.751c3.832,-0.876 7.119,-0.499 9.771,1.121c0.295,0.181 0.388,0.567 0.208,0.863m-4.614,-14.511c-5.556,0 -10.06,4.504 -10.06,10.06c0,5.557 4.504,10.061 10.06,10.061c5.556,0 10.06,-4.504 10.06,-10.061c0,-5.556 -4.504,-10.06 -10.06,-10.06" style="fill:#191414;fill-rule:nonzero;"/><path d="M27.881,9.441c-1.737,-0.415 -2.046,-0.705 -2.046,-1.316c0,-0.577 0.543,-0.966 1.351,-0.966c0.783,0 1.56,0.295 2.374,0.903c0.025,0.018 0.056,0.025 0.086,0.02c0.031,-0.004 0.058,-0.021 0.075,-0.046l0.848,-1.195c0.035,-0.05 0.026,-0.118 -0.021,-0.155c-0.969,-0.778 -2.061,-1.156 -3.336,-1.156c-1.876,0 -3.186,1.126 -3.186,2.736c0,1.727 1.13,2.338 3.083,2.81c1.662,0.383 1.943,0.704 1.943,1.277c0,0.636 -0.567,1.031 -1.48,1.031c-1.014,0 -1.841,-0.342 -2.766,-1.143c-0.023,-0.02 -0.055,-0.029 -0.084,-0.027c-0.03,0.002 -0.058,0.017 -0.078,0.04l-0.951,1.132c-0.04,0.047 -0.034,0.117 0.012,0.157c1.076,0.961 2.4,1.469 3.828,1.469c2.021,0 3.327,-1.104 3.327,-2.813c0,-1.445 -0.863,-2.244 -2.979,-2.758" style="fill:#191414;fill-rule:nonzero;"/><path d="M36.9,11.377c0,1.219 -0.752,2.07 -1.827,2.07c-1.064,0 -1.866,-0.889 -1.866,-2.07c0,-1.181 0.802,-2.071 1.866,-2.071c1.058,0 1.827,0.87 1.827,2.071m-1.467,-3.649c-0.876,0 -1.595,0.345 -2.187,1.052l0,-0.796c0,-0.063 -0.051,-0.114 -0.114,-0.114l-1.555,0c-0.063,0 -0.114,0.051 -0.114,0.114l0,8.842c0,0.062 0.051,0.114 0.114,0.114l1.555,0c0.063,0 0.114,-0.052 0.114,-0.114l0,-2.791c0.592,0.665 1.311,0.99 2.187,0.99c1.627,0 3.275,-1.253 3.275,-3.648c0,-2.396 -1.648,-3.649 -3.275,-3.649" style="fill:#191414;fill-rule:nonzero;"/><path d="M42.932,13.46c-1.115,0 -1.956,-0.896 -1.956,-2.083c0,-1.193 0.812,-2.059 1.93,-2.059c1.122,0 1.968,0.896 1.968,2.085c0,1.192 -0.817,2.057 -1.942,2.057m0,-5.732c-2.097,0 -3.739,1.614 -3.739,3.675c0,2.038 1.631,3.635 3.713,3.635c2.103,0 3.751,-1.608 3.751,-3.661c0,-2.047 -1.636,-3.649 -3.725,-3.649" style="fill:#191414;fill-rule:nonzero;"/><path d="M51.133,7.87l-1.712,0l0,-1.75c0,-0.063 -0.05,-0.114 -0.113,-0.114l-1.555,0c-0.063,0 -0.114,0.051 -0.114,0.114l0,1.75l-0.748,0c-0.063,0 -0.113,0.051 -0.113,0.114l0,1.336c0,0.063 0.05,0.114 0.113,0.114l0.748,0l0,3.459c0,1.398 0.695,2.107 2.067,2.107c0.558,0 1.021,-0.116 1.457,-0.363c0.036,-0.02 0.058,-0.058 0.058,-0.099l0,-1.273c0,-0.039 -0.021,-0.076 -0.054,-0.096c-0.034,-0.022 -0.076,-0.023 -0.111,-0.006c-0.3,0.151 -0.589,0.221 -0.913,0.221c-0.499,0 -0.722,-0.227 -0.722,-0.735l0,-3.215l1.712,0c0.063,0 0.113,-0.051 0.113,-0.114l0,-1.336c0,-0.063 -0.05,-0.114 -0.113,-0.114" style="fill:#191414;fill-rule:nonzero;"/><path d="M57.096,7.877l0,-0.215c0,-0.633 0.242,-0.915 0.786,-0.915c0.324,0 0.585,0.065 0.876,0.162c0.036,0.011 0.074,0.006 0.103,-0.016c0.03,-0.021 0.047,-0.056 0.047,-0.092l0,-1.311c0,-0.05 -0.032,-0.094 -0.08,-0.109c-0.309,-0.092 -0.703,-0.186 -1.293,-0.186c-1.437,0 -2.196,0.809 -2.196,2.339l0,0.329l-0.747,0c-0.063,0 -0.114,0.051 -0.114,0.114l0,1.343c0,0.063 0.051,0.114 0.114,0.114l0.747,0l0,5.335c0,0.063 0.051,0.114 0.113,0.114l1.556,0c0.062,0 0.114,-0.051 0.114,-0.114l0,-5.335l1.452,0l2.224,5.334c-0.252,0.56 -0.501,0.672 -0.84,0.672c-0.274,0 -0.562,-0.082 -0.857,-0.243c-0.028,-0.016 -0.061,-0.018 -0.091,-0.009c-0.03,0.011 -0.054,0.033 -0.067,0.061l-0.527,1.157c-0.025,0.055 -0.004,0.119 0.049,0.147c0.55,0.298 1.047,0.425 1.661,0.425c1.148,0 1.783,-0.535 2.343,-1.974l2.698,-6.972c0.013,-0.035 0.009,-0.075 -0.012,-0.106c-0.022,-0.031 -0.056,-0.049 -0.094,-0.049l-1.619,0c-0.048,0 -0.092,0.03 -0.108,0.076l-1.658,4.738l-1.817,-4.741c-0.017,-0.044 -0.059,-0.073 -0.106,-0.073l-2.657,0Z" style="fill:#191414;fill-rule:nonzero;"/><path d="M53.639,7.87l-1.555,0c-0.063,0 -0.114,0.051 -0.114,0.114l0,6.785c0,0.063 0.051,0.114 0.114,0.114l1.555,0c0.063,0 0.114,-0.051 0.114,-0.114l0,-6.785c0,-0.063 -0.051,-0.114 -0.114,-0.114" style="fill:#191414;fill-rule:nonzero;"/><path d="M52.869,4.78c-0.616,0 -1.116,0.499 -1.116,1.115c0,0.617 0.5,1.116 1.116,1.116c0.616,0 1.116,-0.499 1.116,-1.116c0,-0.616 -0.5,-1.115 -1.116,-1.115" style="fill:#191414;fill-rule:nonzero;"/><path d="M66.558,8.545l-0.285,0l0,0.363l0.285,0c0.143,0 0.228,-0.069 0.228,-0.182c0,-0.118 -0.085,-0.181 -0.228,-0.181m0.185,0.518l0.31,0.434l-0.261,0l-0.279,-0.398l-0.24,0l0,0.398l-0.218,0l0,-1.149l0.512,0c0.267,0 0.443,0.136 0.443,0.366c0,0.189 -0.109,0.304 -0.267,0.349m-0.243,-1.098c-0.56,0 -0.984,0.446 -0.984,0.992c0,0.545 0.421,0.985 0.979,0.985c0.56,0 0.985,-0.445 0.985,-0.991c0,-0.546 -0.422,-0.986 -0.98,-0.986m-0.005,2.086c-0.616,0 -1.095,-0.494 -1.095,-1.094c0,-0.6 0.485,-1.1 1.1,-1.1c0.616,0 1.095,0.494 1.095,1.094c0,0.6 -0.485,1.1 -1.1,1.1" style="fill:#191414;fill-rule:nonzero;"/></g></svg>