<?xml version="1.0" encoding="UTF-8" standalone="no"?><!DOCTYPE svg PUBLIC "-//W3C//DTD SVG 1.1//EN" "http://www.w3.org/Graphics/SVG/1.1/DTD/svg11.dtd"><svg width="100%" height="100%" viewBox="0 0 144 32" version="1.1" xmlns="http://www.w3.org/2000/svg" xmlns:xlink="http://www.w3.org/1999/xlink" xml:space="preserve" style="fill-rule:evenodd;clip-rule:evenodd;stroke-linejoin:round;stroke-miterlimit:1.41421;"><path id="Combined.-Shape" d="M8.716,5.06l-1.3,-0.001c-1.965,0 -3.866,1.3 -3.866,5.071c0,3.646 1.743,4.819 3.866,4.819l1.3,0l0,-9.889Zm-2.028,11.917l-3.867,8.684l-2.821,0l4.247,-9.287c-1.997,-1.013 -3.328,-2.852 -3.328,-6.243c0,-4.754 3.011,-7.131 6.593,-7.131l3.644,0l0,22.661l-2.44,0l0,-8.684l-2.028,0Zm51.737,0.697c0,-5.008 1.934,-8.209 5.674,-8.209c1.426,0 2.25,0.381 2.947,0.824l-0.349,2.346c-0.666,-0.57 -1.616,-1.109 -2.63,-1.109c-1.775,0 -3.042,1.996 -3.042,6.021c0,3.993 0.95,6.275 2.947,6.275c1.204,0 2.123,-0.475 2.693,-0.982l0.571,1.838c-0.856,0.728 -1.87,1.204 -3.328,1.204c-3.422,0 -5.483,-2.757 -5.483,-8.208Zm-7.226,0.031l0,7.955l-2.471,0l0,-15.972l2.471,0l0,7.383l3.835,-7.383l2.504,0l-3.962,7.51l4.533,8.462l-2.695,0l-4.215,-7.955Zm-8.905,8.177c-3.296,0 -5.324,-2.63 -5.324,-7.543c0,-5.134 1.426,-8.874 4.817,-8.874c2.662,0 4.406,1.997 4.406,7.416l0,1.363l-6.657,0c0,3.614 1.015,5.515 2.98,5.515c1.394,0 2.504,-0.634 3.138,-1.078l0.57,1.902c-1.014,0.792 -2.346,1.299 -3.93,1.299Zm-2.725,-9.666l4.087,0c0,-2.726 -0.443,-4.723 -1.869,-4.723c-1.521,0 -2.06,1.87 -2.218,4.723Zm-4.089,12.582l-2.218,0l0,-3.138l-6.846,0l0,3.138l-2.219,0l0,-5.166l0.983,0c1.458,-3.391 1.616,-8.335 1.616,-12.582l0,-1.362l7.416,0l0,13.944l1.268,0l0,5.166Zm-3.708,-17.114l-2.757,0l0,0.285c0,3.359 -0.158,8.272 -1.489,11.663l4.246,0l0,-11.948Zm-9,-1.996l0,15.972l-2.441,0l0,-7.162l-3.677,0l0,7.162l-2.471,0l0,-15.972l2.471,0l0,6.782l3.677,0l0,-6.782l2.441,0Zm67.35,20.98l-0.158,-1.395c0.254,0.064 0.57,0.126 0.982,0.126c1.078,0 1.838,-1.044 2.314,-2.82l0.127,-0.475l-3.962,-16.416l1.49,0l2.535,10.426c0.285,1.204 0.507,2.377 0.665,3.613l0.096,0c0.222,-1.268 0.475,-2.441 0.761,-3.613l2.471,-10.426l1.331,0l-4.088,16.796c-0.539,2.156 -1.49,4.247 -3.74,4.247c-0.348,0 -0.602,-0.032 -0.824,-0.063Zm9.903,-6.466l0.508,-1.236c0,0 1.077,1.712 3.263,1.712c1.649,0 2.98,-1.173 2.98,-3.487c0,-1.996 -0.982,-3.359 -3.359,-3.359l-1.331,0l0,-1.204l1.172,0c1.838,0 3.137,-1.11 3.137,-3.296c0,-1.616 -0.855,-2.662 -2.408,-2.662c-1.458,0 -2.504,0.823 -3.201,1.805l-0.38,-1.425c0.697,-0.919 1.87,-1.68 3.581,-1.68c2.504,0 3.835,1.585 3.835,3.93c0,1.552 -0.634,2.979 -2.377,3.835c1.996,0.729 2.852,2.282 2.852,4.025c0,3.105 -2.028,4.817 -4.468,4.817c-2.568,0 -3.804,-1.775 -3.804,-1.775Zm20.08,1.458l1.458,0l0,-15.973l-1.458,0l0,15.973Zm-9.38,-15.973l1.489,0l0,5.926l1.173,0c3.042,0 5.007,1.648 5.007,4.975c0,3.392 -2.092,5.072 -5.103,5.072l-2.566,0l0,-15.973Zm1.489,7.099l0,7.701l0.951,0c2.25,0 3.771,-1.11 3.771,-3.866c0,-2.695 -1.332,-3.835 -3.613,-3.835l-1.109,0Zm14.049,8.874l-1.489,0l0,-15.973l1.489,0l0,7.511l5.355,-7.511l1.458,0l-5.26,7.416l5.641,8.557l-1.648,0l-5.546,-8.271l0,8.271Zm15.233,-2.155c-0.76,1.522 -1.901,2.473 -3.486,2.473c-2.154,0 -3.644,-1.712 -3.644,-4.628c0,-3.423 1.87,-5.197 5.324,-5.197l1.743,0l0,-1.997c0,-2.44 -0.919,-3.486 -2.662,-3.486c-1.362,0 -2.599,0.634 -3.359,1.743l-0.413,-1.426c0.634,-0.825 1.965,-1.617 3.772,-1.617c2.631,0 4.12,1.458 4.12,4.627l0,8.716c0,1.11 0.158,2.345 0.349,2.947l-1.363,0c-0.127,-0.412 -0.285,-1.014 -0.381,-2.155Zm-0.063,-1.87l0,-4.405l-1.711,0c-2.631,0 -3.898,1.205 -3.898,3.994c0,2.25 0.982,3.549 2.504,3.549c1.489,0 2.535,-1.426 3.105,-3.138Zm-64.265,-11.58c-0.319,-1.173 -0.573,-2.187 -0.765,-3.232l-0.095,0c0.063,1.077 0.095,2.218 0.095,3.359l0,15.878l-1.403,0l0,-22.66l1.849,0l3.859,14.483c0.159,0.603 0.382,1.775 0.478,2.631l0.095,0c0.128,-0.856 0.384,-2.061 0.542,-2.631l3.89,-14.483l1.787,0l0,22.66l-1.531,0l0,-15.878c0,-1.077 0.064,-2.219 0.127,-3.359l-0.127,0c-0.287,1.267 -0.51,2.186 -0.766,3.137l-3.411,12.614l-1.244,0l-3.38,-12.519Z" style="fill:#2c2c2c;"/></svg>